<svg xmlns="http://www.w3.org/2000/svg" id="icon" width="24" height="24" viewBox="0 0 24 24"><path d="M7.42,12.05h-.02c-.47-.13-.8-.59-.8-1.12v-2.52c0-.65.47-1.16,1.06-1.16h2.86c.58,0,1.06.51,1.14,1.15l.03,2.56" fill="none" stroke="#0e4f47" stroke-miterlimit="10" stroke-width=".5"/><path d="M11.69,10.9c.06.7.03,3.12-.45,4.7-.63,2.08-1.44,1.61-1.44,1.26-.1-.19.83-1.74.12-4.53-.05-.16-.17-.29-.33-.29h-2.19" fill="none" stroke="#0e4f47" stroke-miterlimit="10" stroke-width=".5"/><path d="M14.16,12.05h-.02c-.47-.13-.8-.59-.8-1.12v-2.52c0-.65.47-1.16,1.06-1.16h2.86c.58,0,1.06.51,1.14,1.15l.03,2.56" fill="none" stroke="#0e4f47" stroke-miterlimit="10" stroke-width=".5"/><path d="M18.43,10.9c.06.7.03,3.12-.45,4.7-.63,2.08-1.44,1.61-1.44,1.26-.1-.19.83-1.74.12-4.53-.05-.16-.17-.29-.33-.29h-2.19" fill="none" stroke="#0e4f47" stroke-miterlimit="10" stroke-width=".5"/></svg>