<?xml version="1.0" encoding="UTF-8"?><svg id="Layer_1" xmlns="http://www.w3.org/2000/svg" viewBox="0 0 13.97 15.17"><path d="M13.93,7.59c0,2.11-.68,3.9-2.03,5.37s-3,2.21-4.94,2.21-3.59-.74-4.94-2.21S0,9.7,0,7.59c0-1.05.18-2.04.54-2.96s.86-1.73,1.5-2.42,1.38-1.24,2.22-1.63,1.75-.58,2.72-.58,1.88.2,2.72.58,1.58.92,2.22,1.63,1.14,1.5,1.5,2.42.54,1.89.54,2.96h-.03ZM9.65,7.59c0-.77-.26-1.47-.81-2.04s-1.17-.87-1.88-.87-1.33.3-1.84.87-.77,1.27-.77,2.04.26,1.45.77,1.99,1.12.84,1.84.84,1.35-.28,1.88-.84.81-1.22.81-1.99Z" fill="#0e4f47"/></svg>